#define icon_width 40
#define icon_height 40
static char icon_bits[] = {
   0x80, 0x03, 0x00, 0x80, 0x03, 0x60, 0x04, 0x00, 0x40, 0x0c, 0x10, 0x08,
   0x00, 0x20, 0x10, 0x08, 0x10, 0x00, 0x10, 0x20, 0xc8, 0x13, 0x00, 0x90,
   0x27, 0xe4, 0x27, 0x00, 0xc8, 0x4f, 0xe4, 0x27, 0x00, 0xc8, 0x4f, 0xf2,
   0x4f, 0x00, 0xe4, 0x9f, 0xf2, 0x8f, 0xff, 0xe3, 0x9f, 0xf2, 0x0f, 0x00,
   0xe0, 0x9f, 0xf2, 0x0f, 0x00, 0xe0, 0x9f, 0xf2, 0x87, 0x00, 0xc2, 0x9f,
   0xe2, 0xc3, 0x01, 0x87, 0x8f, 0x04, 0xc0, 0x01, 0x07, 0x40, 0x04, 0xc0,
   0x01, 0x07, 0x40, 0xf8, 0x81, 0x00, 0x02, 0x3f, 0x00, 0x02, 0x00, 0x80,
   0x00, 0x00, 0x0c, 0x00, 0x60, 0x00, 0x00, 0x08, 0x00, 0x20, 0x00, 0x00,
   0x10, 0x00, 0x10, 0x00, 0x00, 0x10, 0x00, 0x10, 0x00, 0x00, 0x20, 0x00,
   0x08, 0x00, 0x10, 0x20, 0x00, 0x08, 0x01, 0x60, 0x40, 0x00, 0x04, 0x06,
   0xc0, 0x41, 0x00, 0x04, 0x1c, 0x80, 0x87, 0x00, 0x02, 0x78, 0xff, 0x8f,
   0x00, 0xf2, 0xff, 0x80, 0x07, 0x01, 0x01, 0x78, 0xc0, 0x01, 0x01, 0x01,
   0x1c, 0x60, 0x00, 0x82, 0x00, 0x06, 0x10, 0xe0, 0x83, 0x0f, 0x01, 0x00,
   0x10, 0x44, 0x10, 0x00, 0x00, 0xc8, 0xc7, 0x27, 0x00, 0x00, 0x24, 0x7c,
   0x48, 0x00, 0x00, 0x12, 0x82, 0x90, 0x00, 0x00, 0x09, 0xaa, 0x20, 0x01,
   0x80, 0x04, 0x82, 0x40, 0x02, 0x00, 0x00, 0x7c, 0x00, 0x00, 0x00, 0x00,
   0x00, 0x00, 0x00, 0x00, 0x00, 0x00, 0x00, 0x00};
