#define pulldown_width 9
#define pulldown_height 9
static char pulldown_bits[] = {
   0x54, 0x00, 0x38, 0x00, 0x92, 0x00, 0x54, 0x00, 0x39, 0x01, 0x92, 0x00,
   0x54, 0x00, 0x38, 0x00, 0x10, 0x00};
